<svg width="800" height="800" viewBox="0 0 800 800" fill="none" xmlns="http://www.w3.org/2000/svg">
<path d="M66.2501 518.75C66.2501 475 5.00006 376.25 33.7501 346.25C65.0001 313.75 137.5 452.5 173.75 452.5C217.5 452.5 243.75 398.75 265 376.25C282.5 358.75 232.5 288.75 255 283.75C348.75 261.25 361.25 316.25 412.5 302.5C452.5 292.5 493.75 286.25 533.75 286.25C683.75 286.25 712.5 393.75 738.75 493.75C743.75 508.75 592.5 637.5 592.5 637.5C592.5 637.5 707.5 572.5 705 587.5C686.25 670 608.75 722.5 521.25 742.5C496.25 748.75 470 751.25 445 751.25C285 751.25 260 627.5 173.75 612.5C121.25 603.75 65.0001 705 35.0001 673.75C2.50006 641.25 66.2501 570 66.2501 518.75Z" fill="#EA5B41"/>
<path d="M198.75 756.25C213.75 771.25 243.75 790 276.25 756.25C308.75 722.5 343.75 662.5 328.75 647.5C313.75 632.5 256.25 668.75 223.75 702.5C191.25 735 183.75 741.25 198.75 756.25Z" fill="#DDA64F"/>
<path d="M382.5 481.25C367.312 481.25 355 463.341 355 441.25C355 419.159 367.312 401.25 382.5 401.25C397.688 401.25 410 419.159 410 441.25C410 463.341 397.688 481.25 382.5 481.25Z" fill="#757575"/>
<path d="M330 521.25C321.716 521.25 315 507.259 315 490C315 472.741 321.716 458.75 330 458.75C338.284 458.75 345 472.741 345 490C345 507.259 338.284 521.25 330 521.25Z" fill="#757575"/>
<path d="M301.25 471.25C297.108 471.25 293.75 461.736 293.75 450C293.75 438.264 297.108 428.75 301.25 428.75C305.392 428.75 308.75 438.264 308.75 450C308.75 461.736 305.392 471.25 301.25 471.25Z" fill="#757575"/>
<path d="M566.25 573.75C517.235 573.75 477.5 532.336 477.5 481.25C477.5 430.164 517.235 388.75 566.25 388.75C615.265 388.75 655 430.164 655 481.25C655 532.336 615.265 573.75 566.25 573.75Z" fill="#FCFCFA"/>
<path d="M566.25 545C532.423 545 505 516.458 505 481.25C505 446.042 532.423 417.5 566.25 417.5C600.077 417.5 627.5 446.042 627.5 481.25C627.5 516.458 600.077 545 566.25 545Z" fill="#29251C"/>
</svg>
